<svg id="Layer_1" enable-background="new 0 0 512 512" height="512" viewBox="0 0 512 512" width="512" xmlns="http://www.w3.org/2000/svg"><g fill="#c52527"><path d="m256 340.646h17.667l48.995 7.853-8.001-37.112 94.322-39.555-16.343-25.899 23.43-46.312-50.813 1.347-21.941-28.31-49.074 58.689 21.046-102.158h-33.405l-25.883-39.343-25.883 39.343h-33.405l21.045 102.158-49.073-58.689-21.941 28.31-50.813-1.347 23.429 46.312-16.342 25.899 94.322 39.555-8.002 37.112 48.996-7.853z"/><path d="m261.798 314.464h-11.597l-4.882 96.454c-.309 6.111 4.562 11.235 10.681 11.235s10.991-5.124 10.681-11.235z"/></g></svg>